<?xml version="1.0" encoding="utf-8"?>
<!-- Generator: Adobe Illustrator 22.1.0, SVG Export Plug-In . SVG Version: 6.00 Build 0)  -->
<svg version="1.1" id="Layer_1" xmlns="http://www.w3.org/2000/svg" xmlns:xlink="http://www.w3.org/1999/xlink" x="0px" y="0px"
	 viewBox="0 0 27 32" style="enable-background:new 0 0 27 32;" xml:space="preserve">
<style type="text/css">
	.st0{filter:url(#filter-1);}
</style>
<filter  filterUnits="objectBoundingBox" height="200%" id="filter-1" width="200%" x="-50%" y="-50%">
	<feOffset  dx="0" dy="2" in="SourceAlpha" result="shadowOffsetOuter1"></feOffset>
	<feGaussianBlur  in="shadowOffsetOuter1" result="shadowBlurOuter1" stdDeviation="2"></feGaussianBlur>
	
		<feColorMatrix  in="shadowBlurOuter1" result="shadowMatrixOuter1" type="matrix" values="0 0 0 0 0   0 0 0 0 0   0 0 0 0 0  0 0 0 0.05 0">
		</feColorMatrix>
	<feMerge>
		<feMergeNode  in="shadowMatrixOuter1"></feMergeNode>
		<feMergeNode  in="SourceGraphic"></feMergeNode>
	</feMerge>
</filter>
<title>ic_home</title>
<desc>Created with Sketch.</desc>
<g id="OPt-2">
	<g id="prog2_pro3_Mobile-Portrait_opt2-Copy-2" transform="translate(-10.000000, -15.000000)">
		<g id="nav">
			<g id="Group-6" class="st0">
				<g id="ic_home_1_" transform="translate(14.000000, 17.000000)">
					<g id="Group_1_" transform="translate(9.600000, 12.000000) scale(-1, 1) translate(-9.600000, -12.000000) ">
						<path id="Shape_5_" d="M0.8,8.4l1,0.8l1.7,1.3c0.2-1.1,0.9-2.1,1.8-2.7L2.1,5.3l1-1.3c0.4-0.5,0.3-1.3-0.2-1.7L0.4,5.4
							C0.1,5.9-0.1,6.5,0,7.1C0.1,7.6,0.4,8.1,0.8,8.4L0.8,8.4z"/>
						<path id="Shape_4_" d="M11.1,19.8c-3.6-1.9-6.8-2.4-7.7-1.1c-0.7,1.1,0.5,3.1,2.7,5.2L4,27.2H2.6c-0.7,0-1.2,0.6-1.2,1.2h1.9
							h2.5l0.8-1.2l1.2-2l0.5-0.8c-0.2-0.3-0.3-0.6-0.3-1c0-1,0.8-1.8,1.8-1.8c0.1,0,0.1,0,0.2,0L11.1,19.8L11.1,19.8z"/>
						<path id="Shape_3_" d="M21.2,7.9c-0.2-0.9-1-1.6-2-1.6c-0.3,0-0.5,0.1-0.8,0.2c-0.7,0.3-1.2,1-1.2,1.9V18
							c0,0.7-0.5,1.2-1.2,1.2c-0.5,0-0.9-0.3-1.1-0.7c0,0,0-0.1,0-0.1l-1.1-2.9L16,8c0,0,0,0,0,0C16,7.9,16,7.8,16,7.7
							c0.8-3-0.6-6.1-3.4-7.3L7.5,2.2c-0.6,0.2-1,0.9-0.8,1.6L8,3.3c0.5-0.2,1.1,0.1,1.3,0.6C9.5,4.4,9.2,5,8.7,5.2L7.4,5.7
							c0.2,0.6,0.9,1,1.6,0.7l1.4-0.5c0.1,0.6-0.2,1.2-0.8,1.4l-2.8,1c-1.2,0.5-2,1.6-2,3c0,0,0,0.1,0,0.1c0,0,0,0.1,0,0.1
							c0,0,0,0,0,0H0.5V9.8c0-0.5-0.6-0.9-0.9-1.1l-0.3-0.2v4.1c0,1.2,0.9,2.1,2.1,2.1h4.8c0.4,0,0.8,0.1,1.2,0.1c0,0,0,0-0.1,0
							c0,0,0,0,0.1,0c0,0,0,0,0,0c2.2,0.5,3.8,2.4,4,4.7c0,0,0,0.1,0,0.1c0,0.1,0,0.3,0,0.4c0,1.3-0.4,2.5-1.2,3.4
							c-0.1,0.1-0.1,0.1-0.2,0.2C10,24,9.9,24.3,9.9,24.6c0,0.8,0.6,1.4,1.3,1.4c0.3,0,0.5-0.1,0.7-0.2l2.7-1.6
							c0.4,0.2,0.6,0.6,0.6,1.1c0,0.3-0.1,0.6-0.3,0.8l-1.1,1.2h-1.4h0h-0.1c-0.7,0-1.2,0.6-1.2,1.2h2.5h0h1.5
							c0-1.2,0.9-2.1,2.1-2.1v-3.6c-1-0.2-1.7-1.1-1.7-2.1c0-0.1,0-0.1,0-0.2c0.1,0,0.2,0,0.4,0c0.5,0,0.9-0.1,1.3-0.4
							c0.7-0.4,1.2-1.3,1.2-2.2V8.3c0-0.4,0.4-0.8,0.8-0.8c0.4,0,0.8,0.3,0.8,0.8c-0.6,0.4-0.9,1-0.9,1.8c0,1.2,0.9,2.1,2.1,2.1V8.3
							C21.3,8.2,21.3,8.1,21.2,7.9L21.2,7.9z"/>
					</g>
				</g>
			</g>
		</g>
	</g>
</g>
</svg>
